<?xml version="1.0" encoding="UTF-8" standalone="no"?>
<!DOCTYPE svg PUBLIC "-//W3C//DTD SVG 1.1//EN" "http://www.w3.org/Graphics/SVG/1.1/DTD/svg11.dtd">
<svg version="1.1" xmlns="http://www.w3.org/2000/svg" xmlns:xlink="http://www.w3.org/1999/xlink" preserveAspectRatio="xMidYMid meet" viewBox="0 0 640 640" width="32" height="32"><defs><path d="M400 320C400 364.16 364.16 400 320 400C275.85 400 240 364.16 240 320C240 275.85 275.85 240 320 240C364.16 240 400 275.85 400 320Z" id="a1mLACup7"></path><path d="M309.58 160L329.58 160L329.57 240L309.57 240L309.58 160Z" id="bO62hDhse"></path><path d="M399.58 80C399.58 124.15 363.73 160 319.58 160C275.42 160 239.58 124.15 239.58 80C239.58 35.85 275.42 0 319.58 0C363.73 0 399.58 35.85 399.58 80Z" id="f3nMrOPCx"></path><path d="M329.57 480.01L309.57 480.01L309.58 400L329.58 400L329.57 480.01Z" id="b1iCtf0yEt"></path><path d="M239.58 560.01C239.58 515.85 275.42 480.01 319.58 480.01C363.73 480.01 399.58 515.85 399.58 560.01C399.58 604.16 363.73 640.01 319.58 640.01C275.42 640.01 239.58 604.16 239.58 560.01Z" id="f1Mwx6Kml"></path><path d="M455.65 233.49L465.65 250.81L396.36 290.8L386.37 273.48L455.65 233.49Z" id="e3sdRL8jq"></path><path d="M569.93 271.43C531.69 293.5 482.73 280.38 460.65 242.14C438.57 203.91 451.69 154.94 489.93 132.86C528.17 110.78 577.14 123.91 599.21 162.14C621.29 200.38 608.17 249.35 569.93 271.43Z" id="fjfkU4lGh"></path><path d="M460.65 397.06L450.65 414.38L381.37 374.37L391.37 357.05L460.65 397.06Z" id="e36q7Fx6Z"></path><path d="M484.93 515C446.69 492.92 433.57 443.95 455.65 405.72C477.73 367.48 526.69 354.36 564.93 376.43C603.17 398.51 616.29 447.48 594.21 485.72C572.14 523.95 523.17 537.08 484.93 515Z" id="c3Uz13nPbj"></path><path d="M189.21 414.37L179.22 397.05L248.5 357.05L258.5 374.37L189.21 414.37Z" id="cu8ddlJSl"></path><path d="M74.93 376.43C113.17 354.35 162.14 367.48 184.22 405.71C206.29 443.95 193.17 492.92 154.93 514.99C116.7 537.07 67.73 523.95 45.65 485.71C23.58 447.48 36.7 398.51 74.93 376.43Z" id="a1z4yKFhRt"></path><path d="M172.79 253.66L182.79 236.34L252.07 276.34L242.07 293.66L172.79 253.66Z" id="a2tI0fGJIf"></path><path d="M148.51 135.72C186.74 157.8 199.86 206.76 177.79 245C155.71 283.24 106.74 296.36 68.51 274.28C30.27 252.21 17.15 203.24 39.22 165C61.3 126.76 110.27 113.64 148.51 135.72Z" id="e1tgnPuLvo"></path></defs><g><g><g><use xlink:href="#a1mLACup7" opacity="1" fill="#0b74a4" fill-opacity="1"></use></g><g><g><use xlink:href="#bO62hDhse" opacity="1" fill="#0b74a4" fill-opacity="1"></use></g><g><use xlink:href="#f3nMrOPCx" opacity="1" fill="#0b74a4" fill-opacity="1"></use></g></g><g><g><use xlink:href="#b1iCtf0yEt" opacity="1" fill="#0b74a4" fill-opacity="1"></use></g><g><use xlink:href="#f1Mwx6Kml" opacity="1" fill="#0b74a4" fill-opacity="1"></use></g></g><g><g><use xlink:href="#e3sdRL8jq" opacity="1" fill="#0b74a4" fill-opacity="1"></use></g><g><use xlink:href="#fjfkU4lGh" opacity="1" fill="#0b74a4" fill-opacity="1"></use></g></g><g><g><use xlink:href="#e36q7Fx6Z" opacity="1" fill="#0b74a4" fill-opacity="1"></use></g><g><use xlink:href="#c3Uz13nPbj" opacity="1" fill="#0b74a4" fill-opacity="1"></use></g></g><g><g><use xlink:href="#cu8ddlJSl" opacity="1" fill="#0b74a4" fill-opacity="1"></use></g><g><use xlink:href="#a1z4yKFhRt" opacity="1" fill="#0b74a4" fill-opacity="1"></use></g></g><g><g><use xlink:href="#a2tI0fGJIf" opacity="1" fill="#0b74a4" fill-opacity="1"></use></g><g><use xlink:href="#e1tgnPuLvo" opacity="1" fill="#0b74a4" fill-opacity="1"></use></g></g></g></g></svg>